<svg xmlns="http://www.w3.org/2000/svg" xmlns:svg="http://www.w3.org/2000/svg" xmlns:xlink="http://www.w3.org/1999/xlink" id="svg2" width="241" height="241" version="1.0"><defs id="defs4"><linearGradient id="linearGradient3690"><stop id="stop3692" offset="0" style="stop-color:#000;stop-opacity:1"/><stop id="stop3694" offset="1" style="stop-color:#000;stop-opacity:0"/></linearGradient><filter id="filter7120" color-interpolation-filters="sRGB"><feGaussianBlur id="feGaussianBlur12" stdDeviation="3.924"/></filter><linearGradient id="linearGradient2836" x1="260" x2="260" y1="146" y2="166" gradientTransform="matrix(0.56019162,0,0,0.53488053,73.61197,199.34637)" gradientUnits="userSpaceOnUse" xlink:href="#linearGradient5158"/><linearGradient id="linearGradient5158"><stop id="stop7" offset="0" style="stop-color:#e6e699"/><stop id="stop9" offset="1" style="stop-color:#aeae2a"/></linearGradient><filter id="filter7120-8" color-interpolation-filters="sRGB"><feGaussianBlur id="feGaussianBlur12-7" stdDeviation="3.924"/></filter><filter id="filter5845" color-interpolation-filters="sRGB"><feGaussianBlur id="feGaussianBlur5847" stdDeviation="1.658"/></filter><filter id="filter3695" color-interpolation-filters="sRGB"><feGaussianBlur id="feGaussianBlur3697" stdDeviation=".417"/></filter><filter id="filter3721" color-interpolation-filters="sRGB"><feGaussianBlur id="feGaussianBlur3723" stdDeviation=".521"/></filter><filter id="filter3747" color-interpolation-filters="sRGB"><feGaussianBlur id="feGaussianBlur3749" stdDeviation=".316"/></filter><filter id="filter3775" color-interpolation-filters="sRGB"><feGaussianBlur id="feGaussianBlur3777" stdDeviation=".511"/></filter><radialGradient id="radialGradient3696" cx="271.972" cy="444.862" r="482.336" fx="271.972" fy="444.862" gradientUnits="userSpaceOnUse" xlink:href="#linearGradient3690"/><linearGradient id="linearGradient3625" x1="241.636" x2="334.056" y1="326.805" y2="524.104" gradientTransform="translate(221.57563,22.105298)" gradientUnits="userSpaceOnUse" xlink:href="#linearGradient3619"/><linearGradient id="linearGradient3619"><stop id="stop3621" offset="0" style="stop-color:#fff;stop-opacity:.70186335"/><stop id="stop3623" offset="1" style="stop-color:#fff;stop-opacity:0"/></linearGradient><linearGradient id="linearGradient5701" x1="298.293" x2="298.293" y1="833.142" y2="120.678" gradientTransform="translate(221.57563,22.105298)" gradientUnits="userSpaceOnUse" xlink:href="#linearGradient5695"/><linearGradient id="linearGradient5695"><stop id="stop5697" offset="0" style="stop-color:#10ff00;stop-opacity:1"/><stop id="stop5699" offset="1" style="stop-color:#000;stop-opacity:1"/></linearGradient><linearGradient id="linearGradient5693" x1="298.293" x2="298.293" y1="120.678" y2="833.142" gradientTransform="translate(221.57563,22.105298)" gradientUnits="userSpaceOnUse" xlink:href="#linearGradient5687"/><linearGradient id="linearGradient5687"><stop id="stop5689" offset="0" style="stop-color:#fff;stop-opacity:1"/><stop id="stop5691" offset="1" style="stop-color:#fff;stop-opacity:0"/></linearGradient><linearGradient id="linearGradient5685" x1="298.297" x2="95" y1="799.612" y2="491.355" gradientTransform="translate(-95,252.7503)" gradientUnits="userSpaceOnUse" xlink:href="#linearGradient5679"/><linearGradient id="linearGradient5679"><stop id="stop5681" offset="0" style="stop-color:#005407;stop-opacity:1"/><stop id="stop5683" offset="1" style="stop-color:#29ff00;stop-opacity:1"/></linearGradient><linearGradient id="linearGradient3065" x1="298.297" x2="95" y1="799.612" y2="491.355" gradientTransform="translate(221.57563,22.105298)" gradientUnits="userSpaceOnUse" xlink:href="#linearGradient5679"/></defs><metadata id="metadata7"/><g id="layer1" transform="translate(-43.286424,-271.88498)"><path id="path5761-9" d="m 196.94636,152.09818 c 0,45.77304 -37.10638,82.87942 -82.87943,82.87942 -45.77304,0 -82.879422,-37.10638 -82.879422,-82.87942 0,-45.77305 37.106382,-82.87943 82.879422,-82.87943 45.77305,0 82.87943,37.10638 82.87943,82.87943 z" transform="matrix(1.3119216,0,0,1.2569232,14.275061,206.14217)" style="opacity:.53736656;fill:#000;fill-opacity:1;stroke:#c8c8c8;stroke-width:10.20100021;stroke-linecap:round;stroke-linejoin:round;stroke-miterlimit:4;stroke-opacity:0;stroke-dasharray:none;filter:url(#filter5845)"/><path id="path5761" d="m 196.94636,152.09818 c 0,45.77304 -37.10638,82.87942 -82.87943,82.87942 -45.77304,0 -82.879422,-37.10638 -82.879422,-82.87942 0,-45.77305 37.106382,-82.87943 82.879422,-82.87943 45.77305,0 82.87943,37.10638 82.87943,82.87943 z" transform="matrix(1.2729587,0,0,1.3209482,19.210616,187.20773)" style="fill:#000;fill-opacity:1;stroke:#c8c8c8;stroke-width:10.20100021;stroke-linecap:round;stroke-linejoin:round;stroke-miterlimit:4;stroke-opacity:0;stroke-dasharray:none"/><path id="path5112-6" d="m 354.10088,448.36095 c -7.98284,-4.3261 -13.74977,-12.22683 -15.14922,-21.55062 -0.216,-1.43908 -0.32795,-2.91205 -0.32795,-4.41101 0,-0.5582 0.0155,-1.11279 0.0462,-1.66337 0.0959,-1.7226 0.33971,-3.40594 0.71901,-5.03748 1.85666,-7.98624 6.95898,-14.73158 13.83957,-18.76863" transform="matrix(0,2.7255926,-2.2272135,-0.02497359,1105.5634,-547.84138)" style="opacity:.56000001;fill:none;stroke:#000;stroke-width:1.70022094;stroke-linecap:round;stroke-linejoin:round;stroke-miterlimit:4;stroke-opacity:1;stroke-dasharray:none;stroke-dashoffset:5;marker-start:none;filter:url(#filter3747)"/><path id="path5112" d="m 107.21071,402.176 c 9.63521,-21.64973 27.23183,-37.17084 47.99784,-40.75245 3.2051,-0.55269 6.48578,-0.82092 9.82425,-0.78337 1.24338,0.0138 2.47839,0.0703 3.70479,0.1679 3.83653,0.30486 7.58571,1.01066 11.2195,2.08538 17.787,5.26012 32.8103,19.33543 41.80172,38.19001" style="fill:none;stroke:#fff;stroke-width:6.58827257;stroke-linecap:round;stroke-linejoin:round;stroke-miterlimit:4;stroke-opacity:1;stroke-dasharray:none;stroke-dashoffset:5;marker-start:none"/><path style="opacity:.56000001;fill:none;stroke:#000;stroke-width:1.68172038;stroke-linecap:round;stroke-linejoin:round;stroke-miterlimit:4;stroke-opacity:1;stroke-dasharray:none;stroke-dashoffset:5;filter:url(#filter3695)" id="path3607-9" d="m 347.97085,456.46892 c -10.53734,-5.71045 -18.14969,-16.13942 -19.99697,-28.44682 -0.28512,-1.89959 -0.43289,-3.84391 -0.43289,-5.82253 0,-0.73683 0.0205,-1.46889 0.061,-2.19565 0.12659,-2.27383 0.44842,-4.49584 0.9491,-6.64948 2.45079,-10.54183 9.18585,-19.44568 18.26823,-24.77459" transform="matrix(0,2.7255926,-2.2272135,-0.02497359,1105.5634,-547.84138)"/><path style="fill:none;stroke:#fff;stroke-width:6.30273867;stroke-linecap:round;stroke-linejoin:round;stroke-miterlimit:4;stroke-opacity:1;stroke-dasharray:none;stroke-dashoffset:5" id="path3607" d="m 88.883086,384.95885 c 9.01226,-20.25038 23.301434,-36.4385 40.616954,-45.83555 7.12049,-3.86427 14.75273,-6.58032 22.74026,-7.95789 4.23072,-0.72964 8.56112,-1.0837 12.96791,-1.03404 1.64102,0.0183 3.27149,0.0929 4.89022,0.22167 5.06424,0.40186 10.01317,1.33419 14.80971,2.75264 23.47905,6.94309 43.30984,25.52246 55.17834,50.41071"/><path style="opacity:.56000001;fill:none;stroke:#000;stroke-width:1.62090814;stroke-linecap:round;stroke-linejoin:round;stroke-miterlimit:4;stroke-opacity:1;stroke-dasharray:none;stroke-dashoffset:5;filter:url(#filter3721)" id="path3613-5" d="m 341.94815,464.95594 c -13.15511,-7.12908 -22.65857,-20.14887 -24.96475,-35.51376 -0.35596,-2.3715 -0.54044,-4.79884 -0.54044,-7.26901 0,-0.91987 0.0255,-1.83379 0.0761,-2.7411 0.15804,-2.83872 0.55982,-5.61273 1.18488,-8.30138 3.05963,-13.16071 11.46786,-24.27652 22.80654,-30.92926" transform="matrix(0,2.7255926,-2.2272135,-0.02497359,1105.5634,-547.84138)"/><path style="fill:none;stroke:#fff;stroke-width:6.39331532;stroke-linecap:round;stroke-linejoin:round;stroke-miterlimit:4;stroke-opacity:1;stroke-dasharray:none;stroke-dashoffset:5" id="path3613" d="m 70.101536,367.43347 c 15.87799,-35.67759 44.875754,-61.25498 79.096684,-67.15686 5.2819,-0.91107 10.68811,-1.35325 16.18979,-1.29163 2.04865,0.0232 4.08408,0.11577 6.10483,0.27659 6.32236,0.50146 12.50076,1.666 18.48901,3.43669 29.31183,8.66803 54.06896,31.86311 68.88609,62.93386"/><path style="opacity:.56000001;fill:#000;fill-opacity:1;stroke:#000;stroke-opacity:1;filter:url(#filter3775)" id="path3751-0" d="m 95.569902,247.27231 c 0,14.11728 -11.444315,25.56159 -25.561594,25.56159 -14.117278,0 -25.561594,-11.44431 -25.561594,-25.56159 0,-14.11728 11.444316,-25.5616 25.561594,-25.5616 14.117279,0 25.561594,11.44432 25.561594,25.5616 z" transform="matrix(0.38595754,-2.701223e-8,0,0.35946347,138.71829,309.87221)"/><path style="fill:#fff;fill-opacity:1;stroke:#fff;stroke-opacity:1" id="path3751" d="m 95.569902,247.27231 c 0,14.11728 -11.444315,25.56159 -25.561594,25.56159 -14.117278,0 -25.561594,-11.44431 -25.561594,-25.56159 0,-14.11728 11.444316,-25.5616 25.561594,-25.5616 14.117279,0 25.561594,11.44432 25.561594,25.5616 z" transform="matrix(0.36342505,-1.6374379e-8,0,0.35966649,140.32192,308.64618)"/><path id="path2831" style="fill:#ececec"/><flowRoot style="font-size:40px;font-style:normal;font-weight:400;line-height:125%;letter-spacing:0;word-spacing:0;fill:#000;fill-opacity:1;stroke:none;font-family:Sans" id="flowRoot3030" transform="translate(49.231545,106.95933)" xml:space="preserve"><flowRegion id="flowRegion3032"><rect id="rect3034" width="304.286" height="118.571" x="44.286" y="79.593"/></flowRegion><flowPara id="flowPara3036"/></flowRoot><flowRoot style="font-size:40px;font-style:normal;font-weight:400;line-height:125%;letter-spacing:0;word-spacing:0;fill:#000;fill-opacity:1;stroke:none;font-family:Sans" id="flowRoot3087" transform="translate(49.231545,106.95933)" xml:space="preserve"><flowRegion id="flowRegion3089"><rect id="rect3091" width="555.714" height="657.143" x="397.143" y="51.022"/></flowRegion><flowPara id="flowPara3093"/></flowRoot></g></svg>